<svg width="278" height="221" viewBox="0 0 278 221" fill="none" xmlns="http://www.w3.org/2000/svg">
<g clip-path="url(#clip0_1_618)">
<circle cx="2.5" cy="2.5" r="2.5" fill="#D2D6DB"/>
<circle cx="23.5" cy="2.5" r="2.5" fill="#D2D6DB"/>
<circle cx="44.5" cy="2.5" r="2.5" fill="#D2D6DB"/>
<circle cx="65.5" cy="2.5" r="2.5" fill="#D2D6DB"/>
<circle cx="86.5" cy="2.5" r="2.5" fill="#D2D6DB"/>
<circle cx="107.5" cy="2.5" r="2.5" fill="#D2D6DB"/>
<circle cx="128.5" cy="2.5" r="2.5" fill="#D2D6DB"/>
<circle cx="149.5" cy="2.5" r="2.5" fill="#D2D6DB"/>
<circle cx="170.5" cy="2.5" r="2.5" fill="#D2D6DB"/>
<circle cx="191.5" cy="2.5" r="2.5" fill="#D2D6DB"/>
<circle cx="212.5" cy="2.5" r="2.5" fill="#D2D6DB"/>
<circle cx="233.5" cy="2.5" r="2.5" fill="#D2D6DB"/>
<circle cx="254.5" cy="2.5" r="2.5" fill="#D2D6DB"/>
<circle cx="275.5" cy="2.5" r="2.5" fill="#D2D6DB"/>
<circle cx="2.5" cy="23.5" r="2.5" fill="#D2D6DB"/>
<circle cx="23.5" cy="23.5" r="2.5" fill="#D2D6DB"/>
<circle cx="44.5" cy="23.5" r="2.5" fill="#D2D6DB"/>
<circle cx="65.5" cy="23.5" r="2.5" fill="#D2D6DB"/>
<circle cx="86.5" cy="23.5" r="2.5" fill="#D2D6DB"/>
<circle cx="107.5" cy="23.5" r="2.5" fill="#D2D6DB"/>
<circle cx="128.5" cy="23.5" r="2.5" fill="#D2D6DB"/>
<circle cx="149.5" cy="23.5" r="2.5" fill="#D2D6DB"/>
<circle cx="170.5" cy="23.5" r="2.5" fill="#D2D6DB"/>
<circle cx="191.5" cy="23.5" r="2.5" fill="#D2D6DB"/>
<circle cx="212.5" cy="23.5" r="2.5" fill="#D2D6DB"/>
<circle cx="233.5" cy="23.5" r="2.5" fill="#D2D6DB"/>
<circle cx="254.5" cy="23.5" r="2.5" fill="#D2D6DB"/>
<circle cx="275.5" cy="23.5" r="2.5" fill="#D2D6DB"/>
<circle cx="2.5" cy="44.5" r="2.5" fill="#D2D6DB"/>
<circle cx="23.5" cy="44.5" r="2.5" fill="#D2D6DB"/>
<circle cx="44.5" cy="44.5" r="2.5" fill="#D2D6DB"/>
<circle cx="65.5" cy="44.5" r="2.5" fill="#D2D6DB"/>
<circle cx="86.5" cy="44.5" r="2.5" fill="#D2D6DB"/>
<circle cx="107.5" cy="44.5" r="2.5" fill="#D2D6DB"/>
<circle cx="128.5" cy="44.5" r="2.5" fill="#D2D6DB"/>
<circle cx="149.5" cy="44.5" r="2.5" fill="#D2D6DB"/>
<circle cx="170.5" cy="44.5" r="2.5" fill="#D2D6DB"/>
<circle cx="191.5" cy="44.5" r="2.5" fill="#D2D6DB"/>
<circle cx="212.5" cy="44.5" r="2.5" fill="#D2D6DB"/>
<circle cx="233.5" cy="44.5" r="2.5" fill="#D2D6DB"/>
<circle cx="254.5" cy="44.5" r="2.5" fill="#D2D6DB"/>
<circle cx="275.5" cy="44.5" r="2.5" fill="#D2D6DB"/>
<circle cx="2.5" cy="65.5" r="2.5" fill="#D2D6DB"/>
<circle cx="23.5" cy="65.5" r="2.5" fill="#D2D6DB"/>
<circle cx="44.5" cy="65.5" r="2.5" fill="#D2D6DB"/>
<circle cx="65.5" cy="65.5" r="2.5" fill="#D2D6DB"/>
<circle cx="86.5" cy="65.5" r="2.5" fill="#D2D6DB"/>
<circle cx="107.5" cy="65.5" r="2.5" fill="#D2D6DB"/>
<circle cx="128.5" cy="65.5" r="2.5" fill="#D2D6DB"/>
<circle cx="149.5" cy="65.5" r="2.5" fill="#D2D6DB"/>
<circle cx="170.5" cy="65.5" r="2.5" fill="#D2D6DB"/>
<circle cx="191.5" cy="65.5" r="2.5" fill="#D2D6DB"/>
<circle cx="212.5" cy="65.5" r="2.5" fill="#D2D6DB"/>
<circle cx="233.5" cy="65.5" r="2.5" fill="#D2D6DB"/>
<circle cx="254.5" cy="65.5" r="2.5" fill="#D2D6DB"/>
<circle cx="275.5" cy="65.5" r="2.5" fill="#D2D6DB"/>
<circle cx="2.5" cy="86.5" r="2.5" fill="#D2D6DB"/>
<circle cx="23.5" cy="86.5" r="2.5" fill="#D2D6DB"/>
<circle cx="44.5" cy="86.5" r="2.5" fill="#D2D6DB"/>
<circle cx="65.5" cy="86.5" r="2.5" fill="#D2D6DB"/>
<circle cx="86.5" cy="86.5" r="2.5" fill="#D2D6DB"/>
<circle cx="107.5" cy="86.5" r="2.5" fill="#D2D6DB"/>
<circle cx="128.5" cy="86.5" r="2.5" fill="#D2D6DB"/>
<circle cx="149.5" cy="86.5" r="2.5" fill="#D2D6DB"/>
<circle cx="170.5" cy="86.5" r="2.5" fill="#D2D6DB"/>
<circle cx="191.5" cy="86.5" r="2.5" fill="#D2D6DB"/>
<circle cx="212.5" cy="86.5" r="2.5" fill="#D2D6DB"/>
<circle cx="233.5" cy="86.5" r="2.5" fill="#D2D6DB"/>
<circle cx="254.5" cy="86.5" r="2.5" fill="#D2D6DB"/>
<circle cx="275.5" cy="86.5" r="2.5" fill="#D2D6DB"/>
<circle cx="2.5" cy="107.5" r="2.5" fill="#D2D6DB"/>
<circle cx="23.5" cy="107.5" r="2.5" fill="#D2D6DB"/>
<circle cx="44.5" cy="107.5" r="2.5" fill="#D2D6DB"/>
<circle cx="65.5" cy="107.5" r="2.5" fill="#D2D6DB"/>
<circle cx="86.5" cy="107.5" r="2.5" fill="#D2D6DB"/>
<circle cx="107.5" cy="107.5" r="2.5" fill="#D2D6DB"/>
<circle cx="128.5" cy="107.5" r="2.5" fill="#D2D6DB"/>
<circle cx="149.5" cy="107.5" r="2.5" fill="#D2D6DB"/>
<circle cx="170.5" cy="107.5" r="2.5" fill="#D2D6DB"/>
<circle cx="191.5" cy="107.5" r="2.5" fill="#D2D6DB"/>
<circle cx="212.5" cy="107.5" r="2.5" fill="#D2D6DB"/>
<circle cx="233.5" cy="107.5" r="2.5" fill="#D2D6DB"/>
<circle cx="254.5" cy="107.5" r="2.5" fill="#D2D6DB"/>
<circle cx="275.5" cy="107.5" r="2.5" fill="#D2D6DB"/>
<circle cx="2.5" cy="128.5" r="2.5" fill="#D2D6DB"/>
<circle cx="23.5" cy="128.5" r="2.5" fill="#D2D6DB"/>
<circle cx="44.5" cy="128.5" r="2.5" fill="#D2D6DB"/>
<circle cx="65.5" cy="128.5" r="2.5" fill="#D2D6DB"/>
<circle cx="86.5" cy="128.5" r="2.5" fill="#D2D6DB"/>
<circle cx="107.5" cy="128.5" r="2.5" fill="#D2D6DB"/>
<circle cx="128.5" cy="128.5" r="2.5" fill="#D2D6DB"/>
<circle cx="149.5" cy="128.5" r="2.5" fill="#D2D6DB"/>
<circle cx="170.5" cy="128.5" r="2.5" fill="#D2D6DB"/>
<circle cx="191.5" cy="128.5" r="2.5" fill="#D2D6DB"/>
<circle cx="212.5" cy="128.5" r="2.5" fill="#D2D6DB"/>
<circle cx="233.5" cy="128.5" r="2.5" fill="#D2D6DB"/>
<circle cx="254.5" cy="128.5" r="2.5" fill="#D2D6DB"/>
<circle cx="275.5" cy="128.5" r="2.5" fill="#D2D6DB"/>
<circle cx="2.5" cy="149.5" r="2.5" fill="#D2D6DB"/>
<circle cx="23.5" cy="149.5" r="2.5" fill="#D2D6DB"/>
<circle cx="44.5" cy="149.5" r="2.5" fill="#D2D6DB"/>
<circle cx="65.5" cy="149.5" r="2.5" fill="#D2D6DB"/>
<circle cx="86.5" cy="149.5" r="2.5" fill="#D2D6DB"/>
<circle cx="107.5" cy="149.5" r="2.5" fill="#D2D6DB"/>
<circle cx="128.5" cy="149.5" r="2.5" fill="#D2D6DB"/>
<circle cx="149.5" cy="149.5" r="2.5" fill="#D2D6DB"/>
<circle cx="170.5" cy="149.5" r="2.5" fill="#D2D6DB"/>
<circle cx="191.5" cy="149.5" r="2.5" fill="#D2D6DB"/>
<circle cx="212.5" cy="149.5" r="2.5" fill="#D2D6DB"/>
<circle cx="233.5" cy="149.5" r="2.5" fill="#D2D6DB"/>
<circle cx="254.5" cy="149.5" r="2.5" fill="#D2D6DB"/>
<circle cx="275.5" cy="149.5" r="2.5" fill="#D2D6DB"/>
<circle cx="2.5" cy="170.5" r="2.5" fill="#D2D6DB"/>
<circle cx="23.5" cy="170.5" r="2.5" fill="#D2D6DB"/>
<circle cx="44.5" cy="170.5" r="2.5" fill="#D2D6DB"/>
<circle cx="65.5" cy="170.5" r="2.5" fill="#D2D6DB"/>
<circle cx="86.5" cy="170.5" r="2.5" fill="#D2D6DB"/>
<circle cx="107.5" cy="170.5" r="2.5" fill="#D2D6DB"/>
<circle cx="128.5" cy="170.5" r="2.5" fill="#D2D6DB"/>
<circle cx="149.5" cy="170.5" r="2.5" fill="#D2D6DB"/>
<circle cx="170.5" cy="170.5" r="2.5" fill="#D2D6DB"/>
<circle cx="191.5" cy="170.5" r="2.5" fill="#D2D6DB"/>
<circle cx="212.5" cy="170.5" r="2.5" fill="#D2D6DB"/>
<circle cx="233.5" cy="170.5" r="2.5" fill="#D2D6DB"/>
<circle cx="254.5" cy="170.5" r="2.5" fill="#D2D6DB"/>
<circle cx="275.5" cy="170.5" r="2.5" fill="#D2D6DB"/>
<circle cx="2.5" cy="191.5" r="2.5" fill="#D2D6DB"/>
<circle cx="23.5" cy="191.5" r="2.5" fill="#D2D6DB"/>
<circle cx="44.5" cy="191.5" r="2.5" fill="#D2D6DB"/>
<circle cx="65.5" cy="191.5" r="2.5" fill="#D2D6DB"/>
<circle cx="86.5" cy="191.5" r="2.5" fill="#D2D6DB"/>
<circle cx="107.5" cy="191.5" r="2.5" fill="#D2D6DB"/>
<circle cx="128.5" cy="191.5" r="2.5" fill="#D2D6DB"/>
<circle cx="149.5" cy="191.5" r="2.5" fill="#D2D6DB"/>
<circle cx="170.5" cy="191.5" r="2.5" fill="#D2D6DB"/>
<circle cx="191.5" cy="191.5" r="2.5" fill="#D2D6DB"/>
<circle cx="212.5" cy="191.5" r="2.5" fill="#D2D6DB"/>
<circle cx="233.5" cy="191.5" r="2.5" fill="#D2D6DB"/>
<circle cx="254.5" cy="191.5" r="2.5" fill="#D2D6DB"/>
<circle cx="275.5" cy="191.5" r="2.5" fill="#D2D6DB"/>
<circle cx="2.5" cy="212.5" r="2.5" fill="#D2D6DB"/>
<circle cx="23.5" cy="212.5" r="2.5" fill="#D2D6DB"/>
<circle cx="44.5" cy="212.5" r="2.5" fill="#D2D6DB"/>
<circle cx="65.5" cy="212.5" r="2.5" fill="#D2D6DB"/>
<circle cx="86.5" cy="212.5" r="2.5" fill="#D2D6DB"/>
<circle cx="107.5" cy="212.5" r="2.5" fill="#D2D6DB"/>
<circle cx="128.5" cy="212.5" r="2.5" fill="#D2D6DB"/>
<circle cx="149.5" cy="212.5" r="2.5" fill="#D2D6DB"/>
<circle cx="170.5" cy="212.5" r="2.5" fill="#D2D6DB"/>
<circle cx="191.5" cy="212.5" r="2.5" fill="#D2D6DB"/>
<circle cx="212.5" cy="212.5" r="2.5" fill="#D2D6DB"/>
<circle cx="233.5" cy="212.5" r="2.5" fill="#D2D6DB"/>
<circle cx="254.5" cy="212.5" r="2.5" fill="#D2D6DB"/>
<circle cx="275.5" cy="212.5" r="2.5" fill="#D2D6DB"/>
</g>
<defs>
<clipPath id="clip0_1_618">
<rect width="290" height="221" fill="white"/>
</clipPath>
</defs>
</svg>
